<mxfile host="app.diagrams.net" agent="Mozilla/5.0 (Windows NT 10.0; Win64; x64) AppleWebKit/537.36 (KHTML, like Gecko) Chrome/131.0.0.0 Safari/537.36 Edg/131.0.0.0" version="25.0.3">
  <diagram name="Страница — 1" id="YB3UEsufhrrkUFv1Bhb4">
    <mxGraphModel dx="3121" dy="1882" grid="1" gridSize="10" guides="1" tooltips="1" connect="1" arrows="1" fold="1" page="1" pageScale="1" pageWidth="1384" pageHeight="980" math="0" shadow="0">
      <root>
        <mxCell id="0" />
        <mxCell id="1" parent="0" />
        <mxCell id="H8NuMKpo56V1nCsoNDiU-1" style="rounded=0;orthogonalLoop=1;jettySize=auto;html=1;exitX=0.5;exitY=0.5;exitDx=0;exitDy=0;exitPerimeter=0;entryX=0;entryY=0.5;entryDx=0;entryDy=0;endArrow=classic;endFill=1;" edge="1" parent="1" source="H8NuMKpo56V1nCsoNDiU-2" target="H8NuMKpo56V1nCsoNDiU-3">
          <mxGeometry relative="1" as="geometry" />
        </mxCell>
        <mxCell id="H8NuMKpo56V1nCsoNDiU-2" value="Пользователь" style="shape=umlActor;verticalLabelPosition=bottom;verticalAlign=top;html=1;outlineConnect=0;" vertex="1" parent="1">
          <mxGeometry x="-30" y="190" width="30" height="60" as="geometry" />
        </mxCell>
        <mxCell id="H8NuMKpo56V1nCsoNDiU-3" value="Управление плейлистом" style="ellipse;whiteSpace=wrap;html=1;" vertex="1" parent="1">
          <mxGeometry x="103" y="190" width="120" height="60" as="geometry" />
        </mxCell>
        <mxCell id="H8NuMKpo56V1nCsoNDiU-4" style="rounded=0;orthogonalLoop=1;jettySize=auto;html=1;exitX=0;exitY=0.5;exitDx=0;exitDy=0;dashed=1;endArrow=block;endFill=0;entryX=1;entryY=0.5;entryDx=0;entryDy=0;" edge="1" parent="1" source="H8NuMKpo56V1nCsoNDiU-11" target="H8NuMKpo56V1nCsoNDiU-10">
          <mxGeometry relative="1" as="geometry">
            <mxPoint x="890" y="80" as="targetPoint" />
          </mxGeometry>
        </mxCell>
        <mxCell id="H8NuMKpo56V1nCsoNDiU-5" value="extend" style="edgeLabel;html=1;align=center;verticalAlign=middle;resizable=0;points=[];" vertex="1" connectable="0" parent="H8NuMKpo56V1nCsoNDiU-4">
          <mxGeometry x="-0.0594" y="4" relative="1" as="geometry">
            <mxPoint y="-1" as="offset" />
          </mxGeometry>
        </mxCell>
        <mxCell id="H8NuMKpo56V1nCsoNDiU-6" style="rounded=0;orthogonalLoop=1;jettySize=auto;html=1;exitX=1;exitY=0.5;exitDx=0;exitDy=0;entryX=0;entryY=0.5;entryDx=0;entryDy=0;dashed=1;endArrow=none;endFill=0;startArrow=block;startFill=0;" edge="1" parent="1" source="H8NuMKpo56V1nCsoNDiU-10" target="H8NuMKpo56V1nCsoNDiU-13">
          <mxGeometry relative="1" as="geometry" />
        </mxCell>
        <mxCell id="H8NuMKpo56V1nCsoNDiU-7" value="extend" style="edgeLabel;html=1;align=center;verticalAlign=middle;resizable=0;points=[];" vertex="1" connectable="0" parent="H8NuMKpo56V1nCsoNDiU-6">
          <mxGeometry x="0.1875" y="1" relative="1" as="geometry">
            <mxPoint as="offset" />
          </mxGeometry>
        </mxCell>
        <mxCell id="H8NuMKpo56V1nCsoNDiU-8" style="rounded=0;orthogonalLoop=1;jettySize=auto;html=1;exitX=1;exitY=0.5;exitDx=0;exitDy=0;entryX=0;entryY=0.5;entryDx=0;entryDy=0;dashed=1;startArrow=block;startFill=0;endArrow=none;endFill=0;" edge="1" parent="1" source="H8NuMKpo56V1nCsoNDiU-10" target="H8NuMKpo56V1nCsoNDiU-12">
          <mxGeometry relative="1" as="geometry" />
        </mxCell>
        <mxCell id="H8NuMKpo56V1nCsoNDiU-9" value="extend" style="edgeLabel;html=1;align=center;verticalAlign=middle;resizable=0;points=[];" vertex="1" connectable="0" parent="H8NuMKpo56V1nCsoNDiU-8">
          <mxGeometry x="0.3025" relative="1" as="geometry">
            <mxPoint x="1" as="offset" />
          </mxGeometry>
        </mxCell>
        <mxCell id="H8NuMKpo56V1nCsoNDiU-10" value="Управление воспроизведением аудио" style="ellipse;whiteSpace=wrap;html=1;" vertex="1" parent="1">
          <mxGeometry x="540" y="24" width="120" height="60" as="geometry" />
        </mxCell>
        <mxCell id="H8NuMKpo56V1nCsoNDiU-11" value="Включить воспроизведение" style="ellipse;whiteSpace=wrap;html=1;" vertex="1" parent="1">
          <mxGeometry x="742" y="-127" width="120" height="60" as="geometry" />
        </mxCell>
        <mxCell id="H8NuMKpo56V1nCsoNDiU-12" value="Выключить воспроизведение" style="ellipse;whiteSpace=wrap;html=1;" vertex="1" parent="1">
          <mxGeometry x="742" y="122" width="120" height="60" as="geometry" />
        </mxCell>
        <mxCell id="H8NuMKpo56V1nCsoNDiU-13" value="Остановить воспроизведение" style="ellipse;whiteSpace=wrap;html=1;" vertex="1" parent="1">
          <mxGeometry x="742" y="-40" width="120" height="60" as="geometry" />
        </mxCell>
        <mxCell id="H8NuMKpo56V1nCsoNDiU-14" style="rounded=0;orthogonalLoop=1;jettySize=auto;html=1;exitX=0;exitY=0.5;exitDx=0;exitDy=0;entryX=1;entryY=0.5;entryDx=0;entryDy=0;dashed=1;endArrow=block;endFill=0;" edge="1" parent="1" source="H8NuMKpo56V1nCsoNDiU-16" target="H8NuMKpo56V1nCsoNDiU-10">
          <mxGeometry relative="1" as="geometry" />
        </mxCell>
        <mxCell id="H8NuMKpo56V1nCsoNDiU-15" value="extend" style="edgeLabel;html=1;align=center;verticalAlign=middle;resizable=0;points=[];" vertex="1" connectable="0" parent="H8NuMKpo56V1nCsoNDiU-14">
          <mxGeometry x="-0.0897" y="4" relative="1" as="geometry">
            <mxPoint as="offset" />
          </mxGeometry>
        </mxCell>
        <mxCell id="H8NuMKpo56V1nCsoNDiU-16" value="Переключить на предыдущую песню" style="ellipse;whiteSpace=wrap;html=1;" vertex="1" parent="1">
          <mxGeometry x="742" y="299" width="120" height="60" as="geometry" />
        </mxCell>
        <mxCell id="H8NuMKpo56V1nCsoNDiU-17" style="rounded=0;orthogonalLoop=1;jettySize=auto;html=1;exitX=1;exitY=0.5;exitDx=0;exitDy=0;entryX=0;entryY=0.5;entryDx=0;entryDy=0;dashed=1;" edge="1" parent="1" source="H8NuMKpo56V1nCsoNDiU-3" target="H8NuMKpo56V1nCsoNDiU-25">
          <mxGeometry relative="1" as="geometry">
            <mxPoint x="422" y="220" as="sourcePoint" />
          </mxGeometry>
        </mxCell>
        <mxCell id="H8NuMKpo56V1nCsoNDiU-18" value="include" style="edgeLabel;html=1;align=center;verticalAlign=middle;resizable=0;points=[];" vertex="1" connectable="0" parent="H8NuMKpo56V1nCsoNDiU-17">
          <mxGeometry relative="1" as="geometry">
            <mxPoint as="offset" />
          </mxGeometry>
        </mxCell>
        <mxCell id="H8NuMKpo56V1nCsoNDiU-19" style="rounded=0;orthogonalLoop=1;jettySize=auto;html=1;entryX=0;entryY=0.5;entryDx=0;entryDy=0;dashed=1;startArrow=none;startFill=0;endArrow=classic;endFill=1;" edge="1" parent="1" target="H8NuMKpo56V1nCsoNDiU-27">
          <mxGeometry relative="1" as="geometry">
            <mxPoint x="230" y="222" as="sourcePoint" />
          </mxGeometry>
        </mxCell>
        <mxCell id="H8NuMKpo56V1nCsoNDiU-20" value="include" style="edgeLabel;html=1;align=center;verticalAlign=middle;resizable=0;points=[];" vertex="1" connectable="0" parent="H8NuMKpo56V1nCsoNDiU-19">
          <mxGeometry x="-0.1531" relative="1" as="geometry">
            <mxPoint as="offset" />
          </mxGeometry>
        </mxCell>
        <mxCell id="H8NuMKpo56V1nCsoNDiU-21" style="rounded=0;orthogonalLoop=1;jettySize=auto;html=1;exitX=1;exitY=0.5;exitDx=0;exitDy=0;entryX=0;entryY=0.5;entryDx=0;entryDy=0;dashed=1;" edge="1" parent="1" source="H8NuMKpo56V1nCsoNDiU-25" target="H8NuMKpo56V1nCsoNDiU-10">
          <mxGeometry relative="1" as="geometry" />
        </mxCell>
        <mxCell id="H8NuMKpo56V1nCsoNDiU-22" value="include" style="edgeLabel;html=1;align=center;verticalAlign=middle;resizable=0;points=[];" vertex="1" connectable="0" parent="H8NuMKpo56V1nCsoNDiU-21">
          <mxGeometry x="-0.1875" y="2" relative="1" as="geometry">
            <mxPoint as="offset" />
          </mxGeometry>
        </mxCell>
        <mxCell id="H8NuMKpo56V1nCsoNDiU-23" style="rounded=0;orthogonalLoop=1;jettySize=auto;html=1;exitX=1;exitY=0.5;exitDx=0;exitDy=0;entryX=0;entryY=0.5;entryDx=0;entryDy=0;dashed=1;endArrow=classic;endFill=1;startArrow=none;startFill=0;" edge="1" parent="1" source="H8NuMKpo56V1nCsoNDiU-25" target="H8NuMKpo56V1nCsoNDiU-26">
          <mxGeometry relative="1" as="geometry" />
        </mxCell>
        <mxCell id="H8NuMKpo56V1nCsoNDiU-24" value="include" style="edgeLabel;html=1;align=center;verticalAlign=middle;resizable=0;points=[];" vertex="1" connectable="0" parent="H8NuMKpo56V1nCsoNDiU-23">
          <mxGeometry x="-0.1375" y="4" relative="1" as="geometry">
            <mxPoint as="offset" />
          </mxGeometry>
        </mxCell>
        <mxCell id="H8NuMKpo56V1nCsoNDiU-25" value="Выбор активной песни" style="ellipse;whiteSpace=wrap;html=1;" vertex="1" parent="1">
          <mxGeometry x="341" y="134" width="120" height="60" as="geometry" />
        </mxCell>
        <mxCell id="H8NuMKpo56V1nCsoNDiU-26" value="добавить песню в&amp;nbsp; плейлист" style="ellipse;whiteSpace=wrap;html=1;" vertex="1" parent="1">
          <mxGeometry x="540" y="130" width="120" height="60" as="geometry" />
        </mxCell>
        <mxCell id="H8NuMKpo56V1nCsoNDiU-27" value="удалить песню из плейлиста" style="ellipse;whiteSpace=wrap;html=1;" vertex="1" parent="1">
          <mxGeometry x="341" y="266" width="120" height="60" as="geometry" />
        </mxCell>
        <mxCell id="H8NuMKpo56V1nCsoNDiU-28" style="rounded=0;orthogonalLoop=1;jettySize=auto;html=1;exitX=0;exitY=0.5;exitDx=0;exitDy=0;entryX=1;entryY=0.5;entryDx=0;entryDy=0;dashed=1;endArrow=block;endFill=0;" edge="1" parent="1" source="H8NuMKpo56V1nCsoNDiU-30" target="H8NuMKpo56V1nCsoNDiU-10">
          <mxGeometry relative="1" as="geometry" />
        </mxCell>
        <mxCell id="H8NuMKpo56V1nCsoNDiU-29" value="extend" style="edgeLabel;html=1;align=center;verticalAlign=middle;resizable=0;points=[];" vertex="1" connectable="0" parent="H8NuMKpo56V1nCsoNDiU-28">
          <mxGeometry x="-0.2844" relative="1" as="geometry">
            <mxPoint as="offset" />
          </mxGeometry>
        </mxCell>
        <mxCell id="H8NuMKpo56V1nCsoNDiU-30" value="Возобновить воспроизведение" style="ellipse;whiteSpace=wrap;html=1;" vertex="1" parent="1">
          <mxGeometry x="742" y="40" width="120" height="60" as="geometry" />
        </mxCell>
        <mxCell id="H8NuMKpo56V1nCsoNDiU-31" style="rounded=0;orthogonalLoop=1;jettySize=auto;html=1;exitX=0;exitY=0.5;exitDx=0;exitDy=0;entryX=1;entryY=0.5;entryDx=0;entryDy=0;dashed=1;endArrow=block;endFill=0;" edge="1" parent="1" source="H8NuMKpo56V1nCsoNDiU-33" target="H8NuMKpo56V1nCsoNDiU-10">
          <mxGeometry relative="1" as="geometry" />
        </mxCell>
        <mxCell id="H8NuMKpo56V1nCsoNDiU-32" value="extend" style="edgeLabel;html=1;align=center;verticalAlign=middle;resizable=0;points=[];" vertex="1" connectable="0" parent="H8NuMKpo56V1nCsoNDiU-31">
          <mxGeometry x="-0.2019" y="3" relative="1" as="geometry">
            <mxPoint as="offset" />
          </mxGeometry>
        </mxCell>
        <mxCell id="H8NuMKpo56V1nCsoNDiU-33" value="Переключить на следую песню" style="ellipse;whiteSpace=wrap;html=1;" vertex="1" parent="1">
          <mxGeometry x="742" y="206" width="120" height="60" as="geometry" />
        </mxCell>
        <mxCell id="H8NuMKpo56V1nCsoNDiU-34" value="include" style="endArrow=classic;dashed=1;html=1;dashPattern=1 3;strokeWidth=2;rounded=0;exitX=1;exitY=0.5;exitDx=0;exitDy=0;endFill=1;endSize=4;entryX=0;entryY=0.5;entryDx=0;entryDy=0;" edge="1" parent="1" source="H8NuMKpo56V1nCsoNDiU-25" target="H8NuMKpo56V1nCsoNDiU-35">
          <mxGeometry width="50" height="50" relative="1" as="geometry">
            <mxPoint x="739" y="328" as="sourcePoint" />
            <mxPoint x="682" y="235" as="targetPoint" />
          </mxGeometry>
        </mxCell>
        <mxCell id="H8NuMKpo56V1nCsoNDiU-35" value="добавить песню в плейлист через UML с платформы Youtube" style="ellipse;whiteSpace=wrap;html=1;" vertex="1" parent="1">
          <mxGeometry x="505" y="230" width="186" height="69" as="geometry" />
        </mxCell>
      </root>
    </mxGraphModel>
  </diagram>
</mxfile>
